<?xml version="1.0" standalone="no"?><!DOCTYPE svg PUBLIC "-//W3C//DTD SVG 1.1//EN" "http://www.w3.org/Graphics/SVG/1.1/DTD/svg11.dtd"><svg t="1763086547717" class="icon" viewBox="0 0 1024 1024" version="1.1" xmlns="http://www.w3.org/2000/svg" p-id="5000" xmlns:xlink="http://www.w3.org/1999/xlink" width="200" height="200"><path d="M876 573.5c0 135.6-72.8 251.6-200.7 298.3-38.9 14.2-99 6.2-143.3 6.2-48 0-111.5 6.7-153-9.9-122.8-48.9-191-162.4-191-294.6C188 396.6 342 269 532 269s344 127.6 344 304.5z" fill="#F41808" p-id="5001"></path><path d="M820 548.7c0 124.6-66.8 231.1-184.3 274-35.7 13-91 5.7-131.7 5.7-44.1 0-102.4 6.1-140.6-9.1C250.7 774.4 188 670.2 188 548.7 188 386.2 329.5 269 504 269s316 117.2 316 279.7z" fill="#FF5543" p-id="5002"></path><path d="M594.9 900.2c-15.1 0-30.3-0.6-45-1.3-13.5-0.6-26.2-1.1-37.8-1.1-10.7 0-22.1 0.3-34.3 0.7-13 0.4-26.5 0.7-40 0.7-28.8 0-65.6-1.5-95.1-13.3-66.8-26.6-121.8-71.8-159.2-130.7-36.3-57-55.5-126-55.5-199.5 0-95.4 40.3-182.9 113.5-246.4 71.2-61.8 167.3-95.8 270.5-95.8s199.3 34 270.5 95.8c73.2 63.5 113.5 151 113.5 246.4 0 75.3-20.3 145.9-58.7 204.1-39.5 59.8-97.2 104.9-166.7 130.3-19 6.9-43.1 10.1-75.7 10.1zM512 857.8c12.4 0 25.6 0.6 39.5 1.2 14.3 0.6 29.1 1.2 43.3 1.2 27.8 0 47.5-2.5 61.9-7.7C718.2 830 769 790.4 803.8 737.8 838 686.1 856 623.2 856 555.7c0-83.6-35.4-160.4-99.7-216.2-63.9-55.5-150.7-86-244.3-86s-180.4 30.5-244.3 86C203.4 395.3 168 472.1 168 555.7c0 65.9 17 127.5 49.2 178.2 32.9 51.7 81.4 91.5 140.3 115 23.2 9.3 55.1 10.4 80.3 10.4 12.9 0 26.1-0.4 38.9-0.7 12.3-0.4 24-0.8 35.3-0.8z" fill="" p-id="5003"></path><path d="M687.4 286.4c-2.2 0-4.4-0.5-6.4-1.4-50.9-23.9-109.4-36.5-169-36.5S393.9 261.1 343 285c-3.8 1.8-8.2 1.9-12.1 0.3-3.9-1.6-6.9-4.7-8.4-8.7-3.6-9.8-5.4-20.1-5.4-30.6 0-48.6 39.6-88.2 88.2-88.2 7.1 0 14.1 0.9 21 2.5C435.7 121.8 470.6 93 512 93s76.3 28.8 85.7 67.4c6.9-1.7 13.9-2.5 21-2.5 48.6 0 88.2 39.6 88.2 88.2 0 10.5-1.8 20.8-5.4 30.6-1.5 3.9-4.5 7.1-8.4 8.7-1.8 0.7-3.8 1-5.7 1zM512 218.5c57.5 0 114.1 11 164.8 31.8 0.1-1.4 0.2-2.9 0.2-4.3 0-32.1-26.1-58.2-58.2-58.2-9.4 0-18.3 2.2-26.6 6.4-4.6 2.4-10.2 2.2-14.7-0.5s-7.2-7.5-7.2-12.8c-0.1-32-26.2-58-58.2-58s-58.1 26-58.2 58c0 5.2-2.8 10.1-7.2 12.8-4.5 2.7-10 2.9-14.7 0.5-8.3-4.3-17.2-6.4-26.6-6.4-32.1 0-58.2 26.1-58.2 58.2 0 1.4 0.1 2.9 0.2 4.3 50.5-20.8 107.1-31.8 164.6-31.8z" fill="" p-id="5004"></path><path d="M512 233.5c63.6 0 123.4 13.5 175.4 37.9 2.9-7.9 4.5-16.4 4.5-25.4 0-40.4-32.8-73.2-73.2-73.2-12.1 0-23.4 2.9-33.5 8.1-0.1-40.3-32.9-73-73.2-73s-73.1 32.6-73.2 73c-10-5.2-21.4-8.1-33.5-8.1-40.4 0-73.2 32.8-73.2 73.2 0 8.9 1.6 17.5 4.5 25.4 52-24.4 111.8-37.9 175.4-37.9z" fill="#66D64C" p-id="5005"></path><path d="M695.8 291.9L681 285c-50.9-23.9-109.4-36.5-169-36.5S393.9 261.1 343 285l-14.8 6.9-5.7-15.3c-3.6-9.8-5.4-20.1-5.4-30.6 0-48.6 39.6-88.2 88.2-88.2 7.1 0 14.1 0.9 21 2.5C435.7 121.8 470.6 93 512 93s76.3 28.8 85.7 67.4c6.9-1.7 13.9-2.5 21-2.5 48.6 0 88.2 39.6 88.2 88.2 0 10.5-1.8 20.8-5.4 30.6l-5.7 15.2zM512 218.5c57.5 0 114.1 11 164.8 31.8 0.1-1.4 0.2-2.9 0.2-4.3 0-32.1-26.1-58.2-58.2-58.2-9.4 0-18.3 2.2-26.6 6.4l-21.8 11.2-0.1-24.5c-0.1-32-26.2-58-58.2-58s-58.1 26-58.2 58l-0.1 24.5-21.8-11.2c-8.3-4.3-17.2-6.4-26.6-6.4-32.1 0-58.2 26.1-58.2 58.2 0 1.4 0.1 2.9 0.2 4.3 50.5-20.8 107.1-31.8 164.6-31.8z" fill="" p-id="5006"></path></svg>